<svg width="18" height="18" viewBox="0 0 18 18" fill="none" xmlns="http://www.w3.org/2000/svg">
<path d="M6.42857 1.125V2.25H11.5714V1.125C11.5714 0.503789 12.146 0 12.8571 0C13.5683 0 14.1429 0.503789 14.1429 1.125V2.25H16.0714C17.1362 2.25 18 3.00551 18 3.9375V5.625H0V3.9375C0 3.00551 0.863438 2.25 1.92857 2.25H3.85714V1.125C3.85714 0.503789 4.4317 0 5.14286 0C5.85402 0 6.42857 0.503789 6.42857 1.125ZM0 6.75H18V16.3125C18 17.2441 17.1362 18 16.0714 18H1.92857C0.863438 18 0 17.2441 0 16.3125V6.75ZM12.5357 13.2188C13.0701 13.2188 13.5 12.8426 13.5 12.375C13.5 11.9074 13.0701 11.5312 12.5357 11.5312H5.46429C4.92991 11.5312 4.5 11.9074 4.5 12.375C4.5 12.8426 4.92991 13.2188 5.46429 13.2188H12.5357Z" fill="#67717D"/>
</svg>
