<svg width="24" height="24" viewBox="0 0 24 24" fill="none" xmlns="http://www.w3.org/2000/svg">
<path d="M17.2118 7.44881C17.2118 7.44881 17.4952 7.73385 17.6949 7.44937L18.0762 6.90307C18.2093 6.7109 18.0373 6.57803 18.0197 6.56488L15.7077 4.94947H15.7072C15.5648 4.85044 15.4703 4.91059 15.4207 4.96625L15.3793 5.02583L15.0272 5.5299C15.0255 5.53186 14.8286 5.84291 15.1435 6.00739V6.00767C15.5939 6.22921 16.4199 6.69635 17.2113 7.45049L17.2118 7.44881Z" fill="#67717D"/>
<path d="M13.3216 3.00002H9.67848C9.39568 3.00002 9.16406 3.22715 9.16406 3.51443V3.93905C9.16406 4.22605 9.39568 4.45766 9.67848 4.45766H9.85862V4.75753C9.8589 5.18859 10.1311 5.22439 10.2676 5.21516C10.2908 5.2118 10.3149 5.20817 10.3403 5.20481L10.3439 5.20397H10.3437C10.8287 5.13768 11.6318 5.07418 12.5529 5.19138L12.5535 5.19055C12.5535 5.19055 13.1434 5.29992 13.1418 4.75725V4.45739H13.3219C13.605 4.45739 13.8363 4.22605 13.8363 3.93877V3.51443C13.836 3.22743 13.6044 3.00002 13.3216 3.00002Z" fill="#67717D"/>
<path d="M11.5 5.86162C7.35783 5.86162 4 9.21972 4 13.3625C4 17.5044 7.35783 20.8625 11.5 20.8625C15.6425 20.8625 19 17.5041 19 13.3625C19 9.21972 15.6425 5.86162 11.5 5.86162ZM11.9803 13.3602C11.5397 13.3608 11.5022 13.0542 11.5 12.9658V7.77886C11.5129 7.59843 11.6066 7.25857 12.1288 7.3464C12.1392 7.3478 12.149 7.34892 12.1599 7.35032C12.1934 7.35591 12.225 7.36039 12.2494 7.36235C13.7711 7.57606 17.1091 8.56572 17.5261 13.0528C17.5144 13.1776 17.4436 13.3594 17.1312 13.3613C14.4452 13.3538 12.7459 13.3571 11.9803 13.3602Z" fill="#67717D"/>
</svg>
