<svg width="18" height="18" viewBox="0 0 18 18" fill="none" xmlns="http://www.w3.org/2000/svg">
<path d="M8.99972 10.8C11.4811 10.8 13.4926 8.38234 13.4926 5.4C13.4926 2.41766 11.4811 0 8.99972 0C6.51837 0 4.50684 2.41766 4.50684 5.4C4.50684 8.38234 6.51837 10.8 8.99972 10.8Z" fill="#67717D"/>
<path d="M17.806 15.39C16.9973 13.77 15.4698 12.42 13.4929 11.61C12.9537 11.43 12.3247 11.43 11.8754 11.7C10.9769 12.24 10.0783 12.51 9 12.51C7.92171 12.51 7.02313 12.24 6.12456 11.7C5.67527 11.52 5.04626 11.43 4.50712 11.7C2.53025 12.51 1.00267 13.86 0.19395 15.48C-0.435053 16.65 0.553381 18 1.90125 18H16.0988C17.4466 18 18.4351 16.65 17.806 15.39Z" fill="#67717D"/>
</svg>
